<svg width="24" height="24" viewBox="0 0 24 24" fill="none" xmlns="http://www.w3.org/2000/svg">
<path d="M21.6929 11.5369C21.6362 11.6739 21.5401 11.7911 21.4168 11.8735C21.2934 11.956 21.1484 12 21.0001 12H17.2501V19.5C17.2501 19.8978 17.0921 20.2794 16.8108 20.5607C16.5295 20.842 16.1479 21 15.7501 21H8.2501C7.85228 21 7.47075 20.842 7.18944 20.5607C6.90814 20.2794 6.7501 19.8978 6.7501 19.5V12H3.0001C2.85168 12.0001 2.70656 11.9562 2.58312 11.8738C2.45967 11.7914 2.36345 11.6742 2.30664 11.5371C2.24982 11.4 2.23497 11.2491 2.26396 11.1035C2.29294 10.958 2.36447 10.8243 2.46948 10.7194L11.4695 1.71939C11.5391 1.64965 11.6218 1.59433 11.7129 1.55659C11.8039 1.51885 11.9015 1.49942 12.0001 1.49942C12.0987 1.49942 12.1963 1.51885 12.2873 1.55659C12.3784 1.59433 12.4611 1.64965 12.5307 1.71939L21.5307 10.7194C21.6356 10.8243 21.707 10.958 21.7358 11.1035C21.7647 11.249 21.7498 11.3999 21.6929 11.5369Z" fill="#332E2C"/>
</svg>
