<svg width="20" height="20" viewBox="0 0 20 20" fill="none" xmlns="http://www.w3.org/2000/svg">
<path d="M9.20416 14.5456C9.30865 14.6502 9.43272 14.7331 9.56929 14.7897C9.70587 14.8464 9.85226 14.8755 10.0001 14.8755C10.1479 14.8755 10.2943 14.8464 10.4309 14.7897C10.5675 14.7331 10.6916 14.6502 10.796 14.5456L17.0458 8.29575C17.1503 8.19125 17.2332 8.0672 17.2898 7.93066C17.3463 7.79413 17.3755 7.6478 17.3755 7.50001C17.3755 7.35223 17.3463 7.20589 17.2898 7.06936C17.2332 6.93283 17.1503 6.80877 17.0458 6.70427C16.9413 6.59977 16.8173 6.51688 16.6808 6.46033C16.5442 6.40377 16.3979 6.37466 16.2501 6.37466C16.1023 6.37466 15.956 6.40377 15.8195 6.46033C15.6829 6.51688 15.5589 6.59977 15.4544 6.70427L15.4543 6.70429L10.0001 12.1593L4.54587 6.70429L4.54584 6.70427C4.3348 6.49323 4.04856 6.37466 3.7501 6.37466C3.45164 6.37466 3.16541 6.49323 2.95436 6.70427C2.74332 6.91531 2.62476 7.20155 2.62476 7.50001C2.62476 7.79847 2.74332 8.08471 2.95436 8.29575L9.20416 14.5456ZM9.20416 14.5456L9.5577 14.1924L9.20436 14.5458L9.20416 14.5456Z" fill="#8A3225" stroke="#8A3225"/>
</svg>
